PathFileType	4	(X/Y/Z)	s11c0001.trc
DataRate	CameraRate	NumFrames	NumMarkers	Units	OrigDataRate	OrigDataStartFrame	OrigNumFrames
200	200	6	49	mm	200	1000	2000
Frame#	Time	racr			lacr			c7			jug			rlel			rdr			llel			ldr			s2			lic			ric			lasi			rasi			rpsi			lpsi			rgt			lgt			rth1			rth2			rth3			rth4			rlfc			rmfc			rsh1			rsh2			rsh3			rsh4			rlmal			rmmal			rcal			rtoe			rmt5			rmt1			lth1			lth2			lth4			lth3			llfc			lmfc			llmal			lmmal			lcal			lmt1			lmt5			lsh1			lsh2			lsh3			lsh4			ltoe			
		X1	Y1	Z1	X2	Y2	Z2	X3	Y3	Z3	X4	Y4	Z4	X5	Y5	Z5	X6	Y6	Z6	X7	Y7	Z7	X8	Y8	Z8	X9	Y9	Z9	X10	Y10	Z10	X11	Y11	Z11	X12	Y12	Z12	X13	Y13	Z13	X14	Y14	Z14	X15	Y15	Z15	X16	Y16	Z16	X17	Y17	Z17	X18	Y18	Z18	X19	Y19	Z19	X20	Y20	Z20	X21	Y21	Z21	X22	Y22	Z22	X23	Y23	Z23	X24	Y24	Z24	X25	Y25	Z25	X26	Y26	Z26	X27	Y27	Z27	X28	Y28	Z28	X29	Y29	Z29	X30	Y30	Z30	X31	Y31	Z31	X32	Y32	Z32	X33	Y33	Z33	X34	Y34	Z34	X35	Y35	Z35	X36	Y36	Z36	X37	Y37	Z37	X38	Y38	Z38	X39	Y39	Z39	X40	Y40	Z40	X41	Y41	Z41	X42	Y42	Z42	X43	Y43	Z43	X44	Y44	Z44	X45	Y45	Z45	X46	Y46	Z46	X47	Y47	Z47	X48	Y48	Z48	X49	Y49	Z49	
1000	5.0000	485.290405	1571.164551	592.410889	455.327362	1596.066895	179.209045	389.603149	1619.869873	386.006775	553.079773	1560.655151	368.050110	487.203979	1313.258911	743.433167	617.991211	1087.260132	889.774414	426.957886	1300.952881	48.953102	552.195312	1062.415161	-128.738403	342.774445	1075.281250	393.743774	511.360046	1162.648560	176.172684	555.213074	1151.621582	567.549011	578.463867	1109.155029	205.565765	611.084717	1111.868896	521.720764	364.484406	1130.196167	448.470673	351.214661	1127.200684	345.759918	508.272339	960.748108	589.364075	444.119476	991.889771	174.816116	518.024902	833.390381	586.223145	538.138489	750.428711	560.694458	514.113281	668.525879	542.295410	572.065796	753.184692	548.226257	509.644348	563.033264	517.004639	504.027130	545.675781	397.229492	463.738800	413.721313	538.943298	478.703094	327.508759	525.131104	448.735962	244.901566	524.914429	504.936707	327.188873	496.064301	431.553040	108.628746	513.465271	463.361908	122.737572	425.971802	386.723877	80.305367	459.328064	667.370483	91.340530	518.996948	591.441223	54.539680	574.065308	609.827332	58.604988	458.448517	473.209106	858.968628	154.706284	492.530548	776.800598	169.472900	528.863586	775.474731	175.042267	466.335693	692.336365	183.608307	461.112701	550.286133	213.431610	475.049896	540.127869	339.618652	405.833984	117.463730	223.535538	436.783478	133.588821	297.734222	369.134918	68.587074	259.905182	592.865601	56.134640	292.015808	569.944275	55.352173	174.981140	423.799225	427.388153	192.548508	442.208649	343.597992	199.519775	416.433777	258.938782	203.055618	474.057312	344.034515	221.835693	660.207520	95.598984	244.001358	
1001	5.0050	485.311554	1571.155273	592.419250	455.311157	1596.063965	179.218994	389.604248	1619.865601	386.004181	553.076965	1560.653809	368.036682	487.222137	1313.262573	743.423523	618.009766	1087.275879	889.772217	426.907166	1300.919067	49.006676	552.110718	1062.395752	-128.726395	342.765350	1075.280884	393.741516	511.336273	1162.642578	176.172729	555.233704	1151.634644	567.566284	578.436890	1109.130493	205.559036	611.086121	1111.851074	521.715820	364.476654	1130.196899	448.502136	351.197937	1127.201172	345.771790	508.279755	960.750000	589.359375	444.100067	991.880310	174.821777	518.021545	833.391418	586.228699	538.135864	750.429321	560.711182	514.115356	668.531433	542.292480	572.079102	753.167786	548.219849	509.614960	563.017639	516.995178	503.980469	545.664612	397.227386	463.753235	413.715088	538.965332	478.696655	327.521027	525.126038	448.714996	244.900192	524.915466	504.937073	327.187714	496.063232	431.559143	108.626312	513.481079	463.347504	122.732155	425.963989	386.747681	80.279892	459.339020	667.373840	91.341789	518.976807	591.461731	54.510967	574.094849	609.831360	58.601284	458.456818	473.208466	858.965759	154.726089	492.514313	776.815491	169.476151	528.854187	775.460327	175.095978	466.317169	692.326355	183.626007	461.112000	550.280090	213.444733	475.064911	540.136841	339.622925	405.818878	117.468811	223.524643	436.781219	133.595520	297.739868	369.135010	68.589188	259.916901	592.859680	56.129532	292.015839	569.938232	55.348919	174.974930	423.803192	427.388855	192.541931	442.203705	343.571472	199.533630	416.435547	258.931213	203.072495	474.037628	344.021973	221.831299	660.210083	95.590240	244.004364	
1002	5.0100	485.317413	1571.159546	592.392090	455.259552	1596.055054	179.196976	389.610779	1619.867676	385.969910	553.078674	1560.633789	368.018829	487.227570	1313.261597	743.412598	618.034180	1087.301147	889.777344	426.867004	1300.901245	49.016937	552.040710	1062.360596	-128.732193	342.724152	1075.284302	393.749634	511.335571	1162.643799	176.173080	555.179443	1151.619751	567.540894	578.414978	1109.139771	205.572296	611.071655	1111.860596	521.733154	364.453308	1130.186401	448.493134	351.184631	1127.198486	345.774963	508.259674	960.749573	589.361023	444.079834	991.880066	174.827423	518.014343	833.382263	586.214111	538.130188	750.439148	560.709656	514.104370	668.545898	542.300659	572.054871	753.152649	548.212708	509.602142	563.026672	516.995789	503.980316	545.676270	397.232574	463.734009	413.709473	538.952881	478.705780	327.520203	525.131958	448.728241	244.895935	524.900391	504.924530	327.180145	496.061401	431.530334	108.607536	513.476746	463.349792	122.745621	425.977173	386.733673	80.292908	459.339386	667.360779	91.330788	518.991211	591.432129	54.535553	574.075134	609.821777	58.618244	458.443787	473.169342	858.954102	154.715637	492.500366	776.798157	169.481613	528.825745	775.475037	175.105118	466.305145	692.331604	183.637894	461.085480	550.293823	213.435852	475.058167	540.150818	339.631897	405.835388	117.471245	223.529388	436.786346	133.584885	297.741211	369.125397	68.577858	259.921631	592.870117	56.132893	292.024780	569.938416	55.362259	174.980453	423.794495	427.388275	192.553513	442.200562	343.573029	199.546967	416.433289	258.935242	203.068741	474.034515	344.030853	221.848724	660.186646	95.582069	243.988556	
1003	5.0150	485.344849	1571.170654	592.374268	455.238068	1596.037476	179.173019	389.604248	1619.865601	386.004181	553.071838	1560.638062	368.001221	487.252289	1313.275635	743.399109	618.066833	1087.322021	889.766296	426.802612	1300.879639	49.025494	551.962646	1062.340210	-128.745010	342.729858	1075.259521	393.750214	511.283936	1162.621338	176.158859	555.182800	1151.626587	567.546570	578.401611	1109.139771	205.561462	611.052002	1111.860962	521.718018	364.428497	1130.181885	448.511230	351.179291	1127.187378	345.777954	508.257538	960.752502	589.360046	444.054840	991.870544	174.853104	518.013672	833.376587	586.216309	538.128601	750.444153	560.726196	514.118591	668.535156	542.301819	572.036072	753.184509	548.228577	509.611725	563.043335	517.010498	503.978302	545.668579	397.234039	463.739990	413.720367	538.965210	478.737030	327.514374	525.153748	448.719299	244.895889	524.913635	504.905273	327.178986	496.058167	431.566895	108.617256	513.478149	463.367676	122.743080	425.972717	386.741058	80.278122	459.311768	667.365967	91.359657	518.985046	591.436401	54.520027	574.087585	609.822144	58.585106	458.440735	473.154816	858.954407	154.732910	492.488647	776.794250	169.481705	528.811096	775.466675	175.105194	466.279785	692.319885	183.641815	461.087921	550.290649	213.442841	475.064178	540.138367	339.629303	405.833496	117.455772	223.533218	436.780792	133.585754	297.740936	369.120087	68.588066	259.925873	592.876221	56.131290	292.021484	569.939514	55.366146	174.985764	423.765167	427.395233	192.549515	442.195709	343.575195	199.548416	416.414948	258.924103	203.070862	474.031769	344.015747	221.827255	660.185547	95.586105	243.985855	
1004	5.0200	485.344147	1571.171509	592.375305	455.226288	1596.032349	179.178741	389.604370	1619.859619	386.005157	553.071533	1560.632568	367.978760	487.234772	1313.272583	743.399475	618.085876	1087.342529	889.761963	426.771088	1300.886719	49.027946	551.887268	1062.312744	-128.750931	342.707489	1075.271606	393.763580	511.257538	1162.621338	176.158096	555.140625	1151.629517	567.526001	578.341309	1109.123047	205.552338	611.036377	1111.857666	521.720093	364.428497	1130.181885	448.511230	351.143524	1127.195923	345.799103	508.260620	960.746704	589.360229	444.034851	991.876526	174.826859	518.001404	833.380371	586.232666	538.103638	750.438416	560.714355	514.104248	668.543274	542.305176	572.045959	753.192810	548.213623	509.606293	563.039490	517.002380	503.965240	545.690247	397.252350	463.734589	413.714874	538.960144	478.657654	327.511597	525.131226	448.709015	244.903229	524.924927	504.913361	327.170929	496.056122	431.540955	108.592468	513.477844	463.359192	122.759293	425.970856	386.745850	80.270180	459.333191	667.362549	91.345566	518.998047	591.445679	54.537468	574.057678	609.805664	58.599243	458.449280	473.122162	858.950623	154.720856	492.457916	776.806702	169.454727	528.796265	775.466125	175.081467	466.248322	692.307739	183.628220	461.064301	550.287964	213.437592	475.050568	540.126709	339.620422	405.839539	117.443451	223.541992	436.786560	133.576248	297.741119	369.119141	68.586075	259.912354	592.866028	56.127342	292.024323	569.949097	55.354546	174.994492	423.760864	427.390289	192.548874	442.174988	343.568451	199.538544	416.396362	258.932892	203.061646	473.999878	344.013977	221.826370	660.190979	95.576263	243.991745	
1005	5.0250	485.355438	1571.181396	592.354187	455.208344	1596.011963	179.161804	389.604248	1619.881348	386.002045	553.057678	1560.635498	367.961121	487.255249	1313.277466	743.384521	618.104126	1087.358643	889.756531	426.711884	1300.872925	49.063526	551.833618	1062.272827	-128.738464	342.688782	1075.275635	393.766083	511.211212	1162.586182	176.186905	555.155762	1151.628052	567.556030	578.324951	1109.111816	205.554733	611.032959	1111.870728	521.723511	364.401428	1130.191162	448.528748	351.120331	1127.211426	345.809448	508.244720	960.748535	589.377991	444.006897	991.879395	174.852997	518.004944	833.385193	586.230164	538.115906	750.437195	560.729065	514.100769	668.542358	542.306824	572.051880	753.167664	548.238159	509.618225	563.051514	517.016785	503.932159	545.683838	397.239685	463.740997	413.723511	538.971252	478.694855	327.527527	525.141907	448.720703	244.899979	524.916260	504.912476	327.183685	496.065430	431.550598	108.627029	513.474365	463.366272	122.754303	425.984497	386.739838	80.282585	459.331146	667.365784	91.342308	518.974854	591.435730	54.532394	574.079285	609.834229	58.598339	458.464264	473.095367	858.947632	154.712570	492.427704	776.814148	169.438644	528.768494	775.467163	175.082336	466.236389	692.330017	183.641434	461.068542	550.283508	213.454941	475.065155	540.137329	339.630768	405.831085	117.449867	223.536560	436.790802	133.578140	297.745850	369.136688	68.572754	259.908173	592.864929	56.127140	292.024963	569.946838	55.361488	174.986786	423.742523	427.384827	192.557190	442.167725	343.583557	199.529236	416.397888	258.921967	203.068756	474.004578	344.009918	221.835495	660.190735	95.606171	243.998657	
